name D:\school\WTK\thesis\model\3dpredictsim\Results\PredSim_adaptations\Pog_s1_tmt_bCst_d00_k1000000_ig24_Aj23.mot
datacolumns 128
datarows 4
range 0.00000000 0.03216322
endheader
time	pelvis_tilt	pelvis_list	pelvis_rotation	pelvis_tx	pelvis_ty	pelvis_tz	hip_flexion_l	hip_adduction_l	hip_rotation_l	hip_flexion_r	hip_adduction_r	hip_rotation_r	knee_angle_l	knee_angle_r	ankle_angle_l	ankle_angle_r	subtalar_angle_l	subtalar_angle_r	tmt_angle_l	tmt_angle_r	mtp_angle_l	mtp_angle_r	lumbar_extension	lumbar_bending	lumbar_rotation	arm_flex_l	arm_add_l	arm_rot_l	arm_flex_r	arm_add_r	arm_rot_r	elbow_flex_l	elbow_flex_r	pro_sup_l	pro_sup_r	glut_med1_l/activation	glut_med2_l/activation	glut_med3_l/activation	glut_min1_l/activation	glut_min2_l/activation	glut_min3_l/activation	semimem_l/activation	semiten_l/activation	bifemlh_l/activation	bifemsh_l/activation	sar_l/activation	add_long_l/activation	add_brev_l/activation	add_mag1_l/activation	add_mag2_l/activation	add_mag3_l/activation	tfl_l/activation	pect_l/activation	grac_l/activation	glut_max1_l/activation	glut_max2_l/activation	glut_max3_l/activation	iliacus_l/activation	psoas_l/activation	quad_fem_l/activation	gem_l/activation	peri_l/activation	rect_fem_l/activation	vas_med_l/activation	vas_int_l/activation	vas_lat_l/activation	med_gas_l/activation	lat_gas_l/activation	soleus_l/activation	tib_post_l/activation	flex_dig_l/activation	flex_hal_l/activation	tib_ant_l/activation	per_brev_l/activation	per_long_l/activation	per_tert_l/activation	ext_dig_l/activation	ext_hal_l/activation	ercspn_l/activation	intobl_l/activation	extobl_l/activation	glut_med1_r/activation	glut_med2_r/activation	glut_med3_r/activation	glut_min1_r/activation	glut_min2_r/activation	glut_min3_r/activation	semimem_r/activation	semiten_r/activation	bifemlh_r/activation	bifemsh_r/activation	sar_r/activation	add_long_r/activation	add_brev_r/activation	add_mag1_r/activation	add_mag2_r/activation	add_mag3_r/activation	tfl_r/activation	pect_r/activation	grac_r/activation	glut_max1_r/activation	glut_max2_r/activation	glut_max3_r/activation	iliacus_r/activation	psoas_r/activation	quad_fem_r/activation	gem_r/activation	peri_r/activation	rect_fem_r/activation	vas_med_r/activation	vas_int_r/activation	vas_lat_r/activation	med_gas_r/activation	lat_gas_r/activation	soleus_r/activation	tib_post_r/activation	flex_dig_r/activation	flex_hal_r/activation	tib_ant_r/activation	per_brev_r/activation	per_long_r/activation	per_tert_r/activation	ext_dig_r/activation	ext_hal_r/activation	ercspn_r/activation	intobl_r/activation	extobl_r/activation	
          0.00000000	         -2.93017269	         -2.07991050	          4.97108641	          0.00000000	          0.85933804	         -0.00215416	        -18.23262362	         -1.40874510	          6.94197168	         31.91888189	          2.82347598	         -2.21488578	         -5.04581224	        -15.21570284	          1.62218543	          7.48524362	          9.11324123	         -2.24712301	          0.00104474	          0.00003149	         21.12823289	         -0.14572544	         -2.05341370	          0.33230689	         -1.75900651	          7.48100381	        -13.45033544	         16.42382262	         -8.05678529	        -13.50952450	          6.54578677	         34.55655872	         14.68271776	         86.51662706	         86.51662706	          0.32749471	          0.12358072	          0.08193455	          0.35031187	          0.24067874	          0.12973927	          0.05000109	          0.05000026	          0.05000023	          0.08188282	          0.12357611	          0.05000008	          0.05000007	          0.05000012	          0.05000036	          0.05000039	          0.36681828	          0.05000038	          0.05000051	          0.05891169	          0.05005765	          0.05000138	          0.42415835	          0.65185244	          0.05000127	          0.05627609	          0.06452372	          0.25267805	          0.05000048	          0.05000044	          0.05000047	          0.35815961	          0.48749344	          0.31957476	          0.27821364	          0.28351975	          0.39743580	          0.05000005	          0.06443760	          0.16092808	          0.05000020	          0.05000006	          0.05000022	          0.05000000	          0.05000001	          0.05000001	          0.06946251	          0.05000963	          0.05893414	          0.05000121	          0.05000120	          0.05003564	          0.06625542	          0.05895800	          0.22892789	          0.05000151	          0.05000089	          0.10483985	          0.16625959	          0.14874087	          0.13803782	          0.10201980	          0.05892767	          0.05003333	          0.09915192	          0.05893441	          0.08999722	          0.09432887	          0.05000023	          0.05001862	          0.18701068	          0.05000031	          0.05001245	          0.05000017	          0.05614519	          0.06769592	          0.05066022	          0.05000001	          0.05000004	          0.05000000	          0.05893417	          0.05893444	          0.05893439	          0.44948090	          0.36255739	          0.23678386	          0.13573602	          0.49348031	          0.21837341	          0.07715045	          0.11699035	          0.12867749	
          0.01072107	         -2.92818822	         -2.16952152	          5.27550466	          0.01574495	          0.85825376	         -0.00196766	        -18.17221928	         -1.70370314	          6.73476483	         31.39857317	          3.17574750	         -2.02333227	         -6.83985090	        -14.81867620	          0.95323805	          7.13363792	         10.02784446	         -2.71380967	          0.00100959	          0.00003962	         22.18342346	         -0.12066246	         -1.88729491	          0.54658950	         -1.83098757	          7.41652112	        -13.45555669	         16.70850859	         -9.03545507	        -13.50316512	          6.41687148	         35.66399229	         14.46540561	         86.51662706	         86.51662706	          0.27784794	          0.10484632	          0.06951357	          0.29720592	          0.20419272	          0.11007128	          0.05000064	          0.05000014	          0.05000008	          0.06946968	          0.10484258	          0.10404504	          0.05785737	          0.05000120	          0.05000165	          0.05000049	          0.31121003	          0.10937381	          0.05000093	          0.05000119	          0.05000067	          0.05000064	          0.35986890	          0.61720923	          0.05000012	          0.05000029	          0.05474219	          0.21437299	          0.07666136	          0.05598114	          0.05268971	          0.30386385	          0.41359115	          0.28809925	          0.27402961	          0.26377438	          0.35552059	          0.05000001	          0.05893460	          0.16081182	          0.05000016	          0.05000003	          0.05000011	          0.05000003	          0.05000003	          0.05000003	          0.05893241	          0.05893374	          0.05000012	          0.05893424	          0.05893421	          0.05000452	          0.05893423	          0.05002028	          0.21771792	          0.05000023	          0.05000044	          0.13045930	          0.29143204	          0.12620259	          0.12621982	          0.09629973	          0.05000010	          0.08186123	          0.08412250	          0.05000033	          0.14816975	          0.15588240	          0.05893417	          0.05000035	          0.17480022	          0.27006654	          0.14493279	          0.05561908	          0.13770367	          0.13578892	          0.11983897	          0.05104749	          0.05311724	          0.05560502	          0.05000000	          0.05000024	          0.05000020	          0.57946012	          0.35562652	          0.20088844	          0.37271674	          0.56591684	          0.30788306	          0.06545471	          0.09925502	          0.10917043	
          0.02144215	         -2.92145325	         -2.25747650	          5.55599077	          0.03181786	          0.85718844	         -0.00177281	        -18.00539557	         -1.99107791	          6.51995398	         30.77347811	          3.51127030	         -1.77791642	         -8.83465435	        -15.02888225	          0.15458010	          6.50401768	         10.92090246	         -3.16702073	          0.00095089	          0.00000394	         23.13091496	         -0.08135662	         -1.69593555	          0.76731297	         -1.89568380	          7.26094531	        -13.46183028	         16.91725871	        -10.04190252	        -13.49642505	          6.31764832	         36.73905809	         14.30999553	         86.51662706	         86.51662706	          0.23572718	          0.08895199	          0.05897558	          0.25215061	          0.17323784	          0.09338488	          0.05000826	          0.05000096	          0.05000957	          0.05893834	          0.08894895	          0.18991325	          0.12401496	          0.06946555	          0.05894042	          0.05894320	          0.26403176	          0.09279819	          0.05002446	          0.05001793	          0.05003312	          0.05893384	          0.30531405	          0.56685078	          0.05893423	          0.05893462	          0.05893349	          0.18187483	          0.10251140	          0.18412051	          0.15412927	          0.25779912	          0.35089216	          0.24442439	          0.23248803	          0.22378750	          0.30162516	          0.05000002	          0.05000037	          0.15269711	          0.05000007	          0.05000002	          0.05000012	          0.05599581	          0.06499109	          0.05800219	          0.05000001	          0.05000004	          0.10639877	          0.05000005	          0.05000005	          0.05000008	          0.05000007	          0.05000012	          0.18471266	          0.05000011	          0.05000645	          0.11068226	          0.24725212	          0.32100089	          0.20995224	          0.11924193	          0.05000092	          0.06945377	          0.10089103	          0.06918532	          0.12570794	          0.13225125	          0.05000014	          0.06946456	          0.42039575	          0.22912540	          0.12296151	          0.06946452	          0.15914755	          0.17866169	          0.15091284	          0.05000017	          0.06268779	          0.05000001	          0.06946445	          0.06949616	          0.06946508	          0.49161596	          0.40669298	          0.24011863	          0.31621431	          0.50971741	          0.26120908	          0.05553201	          0.08420830	          0.09262057	
          0.03216322	         -2.91119341	         -2.34657319	          5.80889065	          0.04813538	          0.85613993	         -0.00158700	        -17.75307920	         -2.26968717	          6.29268151	         29.98978283	          3.78166989	         -1.51402736	        -10.97244272	        -15.50112184	         -0.80284295	          6.05202298	         11.75225955	         -3.63820592	          0.00088750	         -0.00001289	         23.91059260	         -0.18246891	         -1.48698218	          0.99539989	         -1.94993679	          7.02619596	        -13.46637829	         17.05611798	        -11.05114966	        -13.49428345	          6.27610315	         37.77802090	         14.19107177	         86.51662706	         86.51662706	          0.33120304	          0.07546719	          0.05003510	          0.33709139	          0.14697565	          0.07922810	          0.05000192	          0.05000019	          0.05000014	          0.05000358	          0.07546527	          0.16112314	          0.10521485	          0.05893491	          0.05000551	          0.05000774	          0.26484378	          0.07874517	          0.05000068	          0.05000126	          0.05000073	          0.05000056	          0.25902962	          0.53331543	          0.05000014	          0.05000066	          0.05000018	          0.15430325	          0.08697110	          0.15620855	          0.13076387	          0.21871766	          0.29769811	          0.20737049	          0.19724368	          0.18986221	          0.25589990	          0.05000001	          0.10039058	          0.17816182	          0.05000012	          0.05000005	          0.05000011	          0.05591990	          0.05513867	          0.05000004	          0.25491755	          0.25231243	          0.31166204	          0.35693952	          0.23745092	          0.21327423	          0.07737261	          0.05000339	          0.15737348	          0.08189247	          0.05893392	          0.09390325	          0.20976959	          0.27233832	          0.17812431	          0.10116589	          0.05000041	          0.05893234	          0.08559703	          0.15433025	          0.15464337	          0.11220252	          0.05893407	          0.05893406	          0.35666526	          0.19439089	          0.23730890	          0.05893396	          0.13502137	          0.15157724	          0.12803500	          0.05000209	          0.05318462	          0.05579479	          0.05893391	          0.05896088	          0.05893457	          0.56966593	          0.42031835	          0.21017325	          0.43908698	          0.59830387	          0.30691988	          0.06494032	          0.10530441	          0.07857961	
